<?xml version="1.0" encoding="UTF-8"?>
<svg xmlns="http://www.w3.org/2000/svg" width="48" height="48" viewBox="0 0 48 48" fill="none">
  <path d="M38.193 18.3591C37.422 15.6061 35.874 13.1821 33.796 11.3291L29.198 15.9271C30.875 17.2921 32.006 19.3011 32.212 21.5751V23.0831C32.238 23.0831 32.262 23.0751 32.288 23.0751C34.61 23.0751 36.5 24.9651 36.5 27.2871C36.5 29.6091 34.61 31.5001 32.288 31.5001C32.262 31.5001 32.238 31.4931 32.212 31.4921V31.5001H25.546H24V38.0001H32.212V37.9961C32.238 37.9961 32.262 38.0001 32.288 38.0001C38.195 38.0001 43 33.1941 43 27.2881C43 23.5631 41.086 20.2791 38.193 18.3591Z" fill="#4285F4"></path>
  <path opacity="0.5" d="M19.56 25.5899L24.28 20.8699C24.276 20.8649 24.272 20.8609 24.269 20.8569L19.552 25.5739C19.554 25.5789 19.557 25.5839 19.56 25.5899Z" fill="#FFE082"></path>
  <path opacity="0.5" d="M19.56 25.5899L24.28 20.8699C24.276 20.8649 24.272 20.8609 24.269 20.8569L19.552 25.5739C19.554 25.5789 19.557 25.5839 19.56 25.5899Z" fill="#90CAF9"></path>
  <path d="M24 7.57593C15.867 7.57593 9.25 14.1929 9.25 22.3259C9.25 22.5589 9.274 22.7859 9.285 23.0159H15.785C15.766 22.7879 15.75 22.5589 15.75 22.3259C15.75 17.7769 19.451 14.0759 24 14.0759C25.969 14.0759 27.778 14.7719 29.198 15.9269L33.796 11.3289C31.188 9.00293 27.761 7.57593 24 7.57593Z" fill="#EA4335"></path>
  <path opacity="0.5" d="M15.7121 31.5H15.7101C15.0991 31.5 14.5221 31.363 13.9981 31.127L9.28809 35.837C11.0811 37.188 13.3011 38 15.7101 38H15.7121H24.0001V31.5H15.7121Z" fill="#90CAF9"></path>
  <path d="M15.7121 31.5H15.7101C15.0991 31.5 14.5221 31.363 13.9981 31.127L9.28809 35.837C11.0811 37.188 13.3011 38 15.7101 38H15.7121H24.0001V31.5H15.7121Z" fill="#34A853"></path>
  <path d="M11.5 27.2901C11.5 24.9701 13.39 23.0801 15.71 23.0801C17.413 23.0801 18.888 24.1031 19.551 25.5741L24.268 20.8571C22.307 18.2551 19.203 16.5801 15.709 16.5801C9.81 16.5801 5 21.3801 5 27.2901C5 30.7811 6.691 33.8801 9.288 35.8371L13.998 31.1271C12.53 30.4691 11.5 28.9991 11.5 27.2901Z" fill="#FBBC04"></path>
</svg>
