<?xml version="1.0" encoding="UTF-8"?>
<svg xmlns="http://www.w3.org/2000/svg" width="122" height="28" viewBox="0 0 122 28" fill="none">
  <path fill-rule="evenodd" clip-rule="evenodd" d="M2.49348 19.928C0.833331 18.3015 0 16.3465 0 14.0662C0 11.7859 0.830076 9.83089 2.49348 8.20442C4.15364 6.57794 6.1328 5.76471 8.43097 5.76471C10.6315 5.76471 12.5325 6.5259 14.1243 8.05153L12.5228 9.65197C11.3737 8.572 10.0097 8.03201 8.43097 8.03201C6.77082 8.03201 5.36131 8.61754 4.20572 9.7951C3.05012 10.9694 2.47395 12.3942 2.47395 14.0662C2.47395 15.7415 3.05012 17.163 4.20572 18.3373C5.36131 19.5116 6.76756 20.1004 8.43097 20.1004C10.1204 20.1004 11.5169 19.5474 12.6269 18.4382C13.2877 17.7778 13.7011 16.8247 13.8639 15.5821H8.43422V13.3148H16.0742C16.1556 13.7182 16.1946 14.1931 16.1946 14.7331C16.1946 16.9613 15.5403 18.7277 14.2285 20.0386C12.7409 21.5935 10.8105 22.3677 8.43097 22.3677C6.1328 22.3677 4.15689 21.5545 2.49348 19.928ZM26.1848 20.8388C25.1432 21.857 23.8736 22.3677 22.3762 22.3677C20.8789 22.3677 19.6061 21.857 18.5677 20.8388C17.526 19.8207 17.0084 18.5488 17.0084 17.0231C17.0084 15.4975 17.5293 14.2256 18.5677 13.2074C19.6093 12.1893 20.8789 11.6786 22.3762 11.6786C23.8736 11.6786 25.1464 12.1893 26.1848 13.2074C27.2265 14.2256 27.7441 15.5008 27.7441 17.0231C27.7441 18.5488 27.2232 19.8207 26.1848 20.8388ZM20.2473 19.3425C20.843 19.9573 21.5494 20.2631 22.3762 20.2631C23.1998 20.2631 23.9094 19.9573 24.5051 19.3425C25.1008 18.7277 25.3971 17.9567 25.3971 17.0231C25.3971 16.0798 25.1041 15.3023 24.5149 14.694C23.9257 14.0857 23.2161 13.7832 22.3762 13.7832C21.5397 13.7832 20.8268 14.0857 20.2376 14.694C19.6484 15.3023 19.3554 16.0765 19.3554 17.0231C19.3554 17.9535 19.6516 18.7277 20.2473 19.3425ZM37.897 20.8388C36.8554 21.857 35.5858 22.3677 34.0885 22.3677C32.5911 22.3677 31.3183 21.857 30.2799 20.8388C29.2382 19.8207 28.7206 18.5488 28.7206 17.0231C28.7206 15.4975 29.2415 14.2256 30.2799 13.2074C31.3183 12.1893 32.5911 11.6786 34.0885 11.6786C35.5858 11.6786 36.8586 12.1893 37.897 13.2074C38.9387 14.2256 39.4563 15.5008 39.4563 17.0231C39.4563 18.5488 38.9355 19.8207 37.897 20.8388ZM31.9596 19.3425C32.5553 19.9573 33.2616 20.2631 34.0885 20.2631C34.912 20.2631 35.6217 19.9573 36.2174 19.3425C36.8131 18.7277 37.1093 17.9567 37.1093 17.0231C37.1093 16.0798 36.8163 15.3023 36.2271 14.694C35.6379 14.0857 34.9283 13.7832 34.0885 13.7832C33.2519 13.7832 32.539 14.0857 31.9498 14.694C31.3606 15.3023 31.0676 16.0765 31.0676 17.0231C31.0676 17.9535 31.3639 18.7277 31.9596 19.3425ZM45.5956 27.1691C44.4074 27.1691 43.4081 26.8503 42.5976 26.2159C41.787 25.5816 41.2076 24.8465 40.856 24.0072L42.9035 23.1582C43.1184 23.6722 43.4569 24.1178 43.9159 24.4951C44.3749 24.8725 44.9348 25.0612 45.5988 25.0612C46.4908 25.0612 47.1906 24.7912 47.6952 24.2512C48.203 23.7112 48.4537 22.9337 48.4537 21.9221V21.1511H48.3723C47.7115 21.9611 46.7707 22.3677 45.5565 22.3677C44.1926 22.3677 42.9979 21.8473 41.9693 20.8096C40.9439 19.7719 40.4296 18.5162 40.4296 17.0427C40.4296 15.5593 40.9439 14.2907 41.9693 13.2465C42.9947 12.2023 44.1926 11.6786 45.5565 11.6786C46.1653 11.6786 46.7154 11.7924 47.2069 12.0234C47.6985 12.2543 48.0891 12.5373 48.3723 12.8724H48.4537V12.0006H50.6835V21.6C50.6835 23.464 50.2082 24.8562 49.2544 25.7833C48.3007 26.7039 47.0832 27.1691 45.5956 27.1691ZM45.7583 20.2631C46.5689 20.2631 47.2492 19.9573 47.7961 19.3425C48.343 18.7277 48.6164 17.9632 48.6164 17.0427C48.6164 16.1123 48.343 15.3349 47.7961 14.7136C47.2492 14.0922 46.5689 13.7832 45.7583 13.7832C44.9348 13.7832 44.2317 14.0955 43.6522 14.7136C43.0696 15.3349 42.7798 16.1091 42.7798 17.0427C42.7798 17.96 43.0696 18.7277 43.6522 19.3425C44.2317 19.9573 44.9348 20.2631 45.7583 20.2631ZM54.6548 6.33072V22.0457H52.3046V6.33072H54.6548ZM61.0969 22.3677C59.5832 22.3677 58.3202 21.8538 57.3078 20.8291C56.2954 19.8044 55.7876 18.5358 55.7876 17.0231C55.7876 15.4585 56.2759 14.1736 57.2557 13.1749C58.2355 12.1763 59.4269 11.6753 60.8332 11.6753C61.481 11.6753 62.0832 11.7924 62.6366 12.0299C63.1899 12.2673 63.6489 12.5699 64.0135 12.9407C64.3781 13.3115 64.6678 13.6726 64.8859 14.0239C65.1008 14.3752 65.2765 14.7266 65.4132 15.0779L65.6574 15.6862L58.5057 18.6431C59.0591 19.7231 59.925 20.2631 61.1001 20.2631C62.1808 20.2631 63.0597 19.7719 63.7336 18.7862L65.5565 20.0028C65.1496 20.6111 64.5767 21.1576 63.8345 21.6423C63.089 22.127 62.1776 22.3677 61.0969 22.3677ZM58.1183 16.8605L62.9002 14.8762C62.7635 14.5379 62.5161 14.2646 62.1515 14.0565C61.787 13.8483 61.3735 13.7442 60.9146 13.7442C60.2245 13.7442 59.5799 14.0272 58.981 14.5932C58.3788 15.1592 58.0923 15.9171 58.1183 16.8605Z" fill="white"></path>
  <path fill-rule="evenodd" clip-rule="evenodd" d="M77.998 22.3677C75.8626 22.3677 74.0723 21.6456 72.6269 20.2013C71.1816 18.757 70.459 16.9548 70.459 14.7949C70.459 12.6349 71.1816 10.8328 72.6269 9.3885C74.0723 7.9442 75.8626 7.22205 77.998 7.22205C80.1855 7.22205 81.9629 8.01251 83.3268 9.59019L82.0312 10.8458C81.0449 9.61621 79.7005 9.00466 77.998 9.00466C76.416 9.00466 75.0846 9.53814 73.9974 10.6051C72.9101 11.6721 72.3665 13.0676 72.3665 14.7949C72.3665 16.5222 72.9101 17.921 73.9974 18.9879C75.0846 20.0549 76.4193 20.5884 77.998 20.5884C79.7396 20.5884 81.2272 19.8857 82.4544 18.4837L83.75 19.7784C83.0892 20.5754 82.2558 21.2064 81.2565 21.6716C80.2604 22.1368 79.1732 22.3677 77.998 22.3677ZM87.2786 22.0457H85.4134V7.54734H87.2786V22.0457ZM90.319 13.3083C91.2792 12.3031 92.4999 11.7989 93.9876 11.7989C95.4719 11.7989 96.6959 12.3031 97.6562 13.3083C98.6165 14.3135 99.095 15.5723 99.095 17.085C99.095 18.5976 98.6165 19.8565 97.6562 20.8616C96.6959 21.8668 95.4752 22.371 93.9876 22.371C92.4999 22.371 91.2792 21.8668 90.319 20.8616C89.3587 19.8565 88.8802 18.5976 88.8802 17.085C88.8802 15.5723 89.3587 14.3135 90.319 13.3083ZM91.7057 19.6841C92.3469 20.3379 93.1087 20.6665 93.9843 20.6665C94.8632 20.6665 95.6217 20.3379 96.263 19.6841C96.9042 19.0302 97.2265 18.1617 97.2265 17.0817C97.2265 16.0017 96.9042 15.1332 96.263 14.4794C95.6217 13.8255 94.86 13.497 93.9843 13.497C93.1054 13.497 92.3469 13.8255 91.7057 14.4794C91.0644 15.1332 90.7421 16.0017 90.7421 17.0817C90.7421 18.1617 91.0644 19.0302 91.7057 19.6841ZM109.407 22.0457H107.624V20.6697H107.542C107.259 21.1414 106.826 21.5447 106.247 21.8733C105.667 22.2051 105.052 22.371 104.404 22.371C103.161 22.371 102.22 21.9937 101.579 21.2357C100.937 20.481 100.615 19.4661 100.615 18.1975V12.121H102.48V17.8917C102.48 19.7426 103.297 20.6665 104.932 20.6665C105.703 20.6665 106.331 20.3574 106.816 19.7361C107.301 19.1148 107.545 18.3992 107.545 17.5892V12.121H109.411V22.0457H109.407ZM115.729 22.3677C114.447 22.3677 113.336 21.8603 112.405 20.8486C111.475 19.837 111.009 18.5813 111.009 17.0817C111.009 15.5821 111.475 14.3265 112.405 13.3148C113.336 12.3031 114.447 11.7957 115.729 11.7957C116.484 11.7957 117.165 11.9583 117.767 12.2804C118.369 12.6057 118.818 13.009 119.114 13.497H119.196L119.114 12.121V7.54734H120.98V22.0457H119.196V20.6697H119.114C118.818 21.1544 118.369 21.561 117.767 21.8863C117.165 22.2051 116.484 22.3677 115.729 22.3677ZM116.032 20.6665C116.911 20.6665 117.656 20.3412 118.271 19.6938C118.887 19.0465 119.193 18.1747 119.193 17.0817C119.193 15.9887 118.887 15.1169 118.271 14.4696C117.656 13.8223 116.911 13.497 116.032 13.497C115.166 13.497 114.424 13.8255 113.802 14.4794C113.18 15.1332 112.871 16.0017 112.871 17.0817C112.871 18.1617 113.18 19.0302 113.802 19.6841C114.424 20.3412 115.169 20.6665 116.032 20.6665Z" fill="white"></path>
  <path fill-rule="evenodd" clip-rule="evenodd" d="M26.185 20.839C25.1433 21.8572 23.8738 22.3679 22.3764 22.3679C20.879 22.3679 19.6062 21.8572 18.5678 20.839C17.5261 19.8208 17.0085 18.5489 17.0085 17.0233C17.0085 15.4977 17.5294 14.2258 18.5678 13.2076C19.6094 12.1894 20.879 11.6787 22.3764 11.6787C23.8738 11.6787 25.1465 12.1894 26.185 13.2076C27.2266 14.2258 27.7442 15.5009 27.7442 17.0233C27.7442 18.5489 27.2234 19.8208 26.185 20.839ZM20.2475 19.3427C20.8432 19.9575 21.5495 20.2632 22.3764 20.2632C23.1999 20.2632 23.9096 19.9575 24.5053 19.3427C25.101 18.7279 25.3972 17.9569 25.3972 17.0233C25.3972 16.08 25.1042 15.3025 24.515 14.6942C23.9258 14.0859 23.2162 13.7834 22.3764 13.7834C21.5398 13.7834 20.8269 14.0859 20.2377 14.6942C19.6485 15.3025 19.3555 16.0767 19.3555 17.0233C19.3555 17.9537 19.6518 18.7279 20.2475 19.3427ZM61.097 22.3679C59.5833 22.3679 58.3203 21.8539 57.3079 20.8293C56.2956 19.8046 55.7877 18.5359 55.7877 17.0233C55.7877 15.4586 56.276 14.1737 57.2558 13.1751C58.2357 12.1764 59.4271 11.6755 60.8333 11.6755C61.4811 11.6755 62.0833 11.7926 62.6367 12.03C63.1901 12.2675 63.6491 12.57 64.0136 12.9409C64.3782 13.3117 64.6679 13.6728 64.886 14.0241C65.1009 14.3754 65.2767 14.7267 65.4134 15.0781L65.6575 15.6864L58.5058 18.6433C59.0592 19.7233 59.9251 20.2632 61.1002 20.2632C62.181 20.2632 63.0599 19.772 63.7337 18.7864L65.5566 20.003C65.1497 20.6113 64.5768 21.1578 63.8346 21.6425C63.0892 22.1272 62.1777 22.3679 61.097 22.3679ZM58.1185 16.8607L62.9004 14.8764C62.7636 14.5381 62.5162 14.2648 62.1517 14.0566C61.7871 13.8484 61.3737 13.7443 60.9147 13.7443C60.2246 13.7443 59.5801 14.0274 58.9811 14.5934C58.3789 15.1594 58.0924 15.9173 58.1185 16.8607Z" fill="white"></path>
  <path fill-rule="evenodd" clip-rule="evenodd" d="M2.49348 19.928C0.833331 18.3015 0 16.3465 0 14.0662C0 11.7859 0.830076 9.83089 2.49348 8.20442C4.15364 6.57794 6.1328 5.76471 8.43097 5.76471C10.6315 5.76471 12.5325 6.5259 14.1243 8.05153L12.5228 9.65197C11.3737 8.572 10.0097 8.03201 8.43097 8.03201C6.77082 8.03201 5.36131 8.61754 4.20572 9.7951C3.05012 10.9694 2.47395 12.3942 2.47395 14.0662C2.47395 15.7415 3.05012 17.163 4.20572 18.3373C5.36131 19.5116 6.76756 20.1004 8.43097 20.1004C10.1204 20.1004 11.5169 19.5474 12.6269 18.4382C13.2877 17.7778 13.7011 16.8247 13.8639 15.5821H8.43422V13.3148H16.0742C16.1556 13.7182 16.1946 14.1931 16.1946 14.7331C16.1946 16.9613 15.5403 18.7277 14.2285 20.0386C12.7409 21.5935 10.8105 22.3677 8.43097 22.3677C6.1328 22.3677 4.15689 21.5545 2.49348 19.928ZM45.5956 27.1691C44.4074 27.1691 43.4081 26.8503 42.5975 26.2159C41.787 25.5816 41.2076 24.8465 40.856 24.0072L42.9035 23.1582C43.1184 23.6722 43.4569 24.1178 43.9159 24.4951C44.3749 24.8725 44.9348 25.0612 45.5988 25.0612C46.4908 25.0612 47.1906 24.7912 47.6952 24.2512C48.203 23.7112 48.4536 22.9337 48.4536 21.9221V21.1511H48.3723C47.7115 21.9611 46.7707 22.3677 45.5565 22.3677C44.1926 22.3677 42.9979 21.8473 41.9693 20.8096C40.9439 19.7719 40.4296 18.5162 40.4296 17.0427C40.4296 15.5593 40.9439 14.2907 41.9693 13.2465C42.9947 12.2023 44.1926 11.6786 45.5565 11.6786C46.1652 11.6786 46.7154 11.7924 47.2069 12.0234C47.6984 12.2543 48.0891 12.5373 48.3723 12.8724H48.4536V12.0006H50.6835V21.6C50.6835 23.464 50.2082 24.8562 49.2544 25.7833C48.3007 26.7039 47.0832 27.1691 45.5956 27.1691ZM45.7583 20.2631C46.5689 20.2631 47.2492 19.9573 47.7961 19.3425C48.343 18.7277 48.6164 17.9632 48.6164 17.0427C48.6164 16.1123 48.343 15.3349 47.7961 14.7136C47.2492 14.0922 46.5689 13.7832 45.7583 13.7832C44.9348 13.7832 44.2317 14.0955 43.6522 14.7136C43.0695 15.3349 42.7798 16.1091 42.7798 17.0427C42.7798 17.96 43.0695 18.7277 43.6522 19.3425C44.2317 19.9573 44.9348 20.2631 45.7583 20.2631ZM54.6548 6.33072V22.0457H52.3046V6.33072H54.6548Z" fill="white"></path>
  <path fill-rule="evenodd" clip-rule="evenodd" d="M54.6547 6.33075V22.0457H52.3044V6.33075H54.6547Z" fill="white"></path>
</svg>
